<?xml version="1.0" encoding="iso-8859-1"?>
<!-- Uploaded to: SVG Repo, www.svgrepo.com, Generator: SVG Repo Mixer Tools -->
<svg fill="#000000" height="800px" width="800px" version="1.1" id="Layer_1" xmlns="http://www.w3.org/2000/svg" xmlns:xlink="http://www.w3.org/1999/xlink" 
	 viewBox="0 0 512.002 512.002" xml:space="preserve">
<g>
	<g>
		<g>
			<path d="M256.001,170.667c11.776,0,21.333-9.557,21.333-21.333S267.777,128,256.001,128s-21.333,9.557-21.333,21.333
				S244.225,170.667,256.001,170.667z"/>
			<path d="M256.001,213.333c-11.776,0-21.333,9.557-21.333,21.333S244.225,256,256.001,256s21.333-9.557,21.333-21.333
				S267.777,213.333,256.001,213.333z"/>
			<path d="M213.334,213.333c11.776,0,21.333-9.557,21.333-21.333s-9.557-21.333-21.333-21.333s-21.333,9.557-21.333,21.333
				S201.558,213.333,213.334,213.333z"/>
			<path d="M213.334,256c-11.776,0-21.333,9.557-21.333,21.333s9.557,21.333,21.333,21.333s21.333-9.557,21.333-21.333
				S225.11,256,213.334,256z"/>
			<path d="M277.334,320c0-11.776-9.557-21.333-21.333-21.333s-21.333,9.557-21.333,21.333s9.557,21.333,21.333,21.333
				S277.334,331.776,277.334,320z"/>
			<path d="M192.001,320c0-11.776-9.557-21.333-21.333-21.333s-21.333,9.557-21.333,21.333s9.557,21.333,21.333,21.333
				S192.001,331.776,192.001,320z"/>
			<path d="M170.668,256c11.776,0,21.333-9.557,21.333-21.333s-9.557-21.333-21.333-21.333s-21.333,9.557-21.333,21.333
				S158.892,256,170.668,256z"/>
			<path d="M448.001,341.335h-21.333V234.667C426.668,140.41,350.258,64,256.001,64S85.334,140.41,85.334,234.667v106.669H64.001
				c-11.782,0-21.333,9.551-21.333,21.333v128c0,11.782,9.551,21.333,21.333,21.333h384c11.782,0,21.333-9.551,21.333-21.333v-128
				C469.334,350.887,459.783,341.335,448.001,341.335z M128.001,234.667c0-70.693,57.307-128,128-128s128,57.307,128,128v106.667
				h-128h-85.333h-42.667V234.667z M426.668,469.336H85.334v-85.333h341.333V469.336z"/>
			<path d="M277.334,42.667V21.333C277.334,9.551,267.783,0,256.001,0s-21.333,9.551-21.333,21.333v21.333
				c0,11.782,9.551,21.333,21.333,21.333S277.334,54.449,277.334,42.667z"/>
			<path d="M490.668,170.667h-21.333c-11.782,0-21.333,9.551-21.333,21.333c0,11.782,9.551,21.333,21.333,21.333h21.333
				c11.782,0,21.333-9.551,21.333-21.333C512.001,180.218,502.45,170.667,490.668,170.667z"/>
			<path d="M441.753,79.085l21.333-21.333c8.331-8.331,8.331-21.839,0-30.17s-21.839-8.331-30.17,0l-21.333,21.333
				c-8.331,8.331-8.331,21.839,0,30.17C419.914,87.416,433.421,87.416,441.753,79.085z"/>
			<path d="M64.001,192c0-11.782-9.551-21.333-21.333-21.333H21.334c-11.782,0-21.333,9.551-21.333,21.333
				c0,11.782,9.551,21.333,21.333,21.333h21.333C54.45,213.333,64.001,203.782,64.001,192z"/>
			<path d="M70.249,79.085c8.331,8.331,21.839,8.331,30.17,0s8.331-21.839,0-30.17L79.086,27.582c-8.331-8.331-21.839-8.331-30.17,0
				s-8.331,21.839,0,30.17L70.249,79.085z"/>
		</g>
	</g>
</g>
</svg>