<?xml version="1.0" encoding="utf-8"?>
<svg width="32px" height="32px" viewBox="0 0 32 32" version="1.1" xmlns="http://www.w3.org/2000/svg">
  <defs/>
  <g id="surface1">
    <path style=" stroke:black;fill-rule:evenodd;fill:rgb(100%,100%,100%);fill-opacity:1;" d="M 14.667969 2.667969 C 14.667969 1.929688 15.261719 1.332031 16 1.332031 C 16.738281 1.332031 17.332031 1.929688 17.332031 2.667969 L 17.332031 5.414062 C 22.167969 6.027344 25.972656 9.832031 26.585938 14.667969 L 29.332031 14.667969 C 30.070312 14.667969 30.667969 15.261719 30.667969 16 C 30.667969 16.738281 30.070312 17.332031 29.332031 17.332031 L 26.585938 17.332031 C 25.972656 22.167969 22.167969 25.972656 17.332031 26.585938 L 17.332031 29.332031 C 17.332031 30.070312 16.738281 30.667969 16 30.667969 C 15.261719 30.667969 14.667969 30.070312 14.667969 29.332031 L 14.667969 26.585938 C 9.832031 25.972656 6.027344 22.167969 5.414062 17.332031 L 2.667969 17.332031 C 1.929688 17.332031 1.332031 16.738281 1.332031 16 C 1.332031 15.261719 1.929688 14.667969 2.667969 14.667969 L 5.414062 14.667969 C 6.027344 9.832031 9.832031 6.027344 14.667969 5.414062 Z M 24 16 C 24 11.582031 20.417969 8 16 8 C 11.582031 8 8 11.582031 8 16 C 8 20.417969 11.582031 24 16 24 C 20.417969 24 24 20.417969 24 16 Z M 20 16 C 20 18.210938 18.210938 20 16 20 C 13.789062 20 12 18.210938 12 16 C 12 13.789062 13.789062 12 16 12 C 18.210938 12 20 13.789062 20 16 Z M 20 16 "/>
  </g>
  <ellipse style="stroke: rgb(0, 0, 0); paint-order: fill; stroke-width: 0px; fill: rgb(220, 0, 0);" cx="16" cy="16" rx="3.579" ry="3.1"/>
</svg>